<?xml version="1.0" encoding="UTF-8"?>
<svg width="1200pt" height="1200pt" version="1.1" viewBox="0 0 1200 1200" xmlns="http://www.w3.org/2000/svg">
 <path d="m180 288c-9.4297 0-18.383 1.9805-26.625 5.25l417.75 355.5c18.285 15.574 38.672 15.586 57 0l418.12-355.88c-8.1211-3.1602-16.984-4.875-26.25-4.875zm-71.25 61.5c-0.48828 3.3984-0.75 6.9609-0.75 10.5v480c0 39.887 32.113 72 72 72h840c39.887 0 72-32.113 72-72v-480c0-3.5391-0.26172-7.1016-0.75-10.5l-416.25 354c-43.148 36.695-107.6 36.754-150.75 0z" fill="#126eb2"/>
</svg>
