<?xml version="1.0" encoding="UTF-8"?>
<svg width="1200pt" height="1200pt" version="1.1" viewBox="0 0 1200 1200" xmlns="http://www.w3.org/2000/svg">
 <g fill="#126eb2">
  <path d="m822.42 424.1c0.58594 10.898-0.58594 22.031-1.9922 32.812 0.46875-3.1641 0.82031-6.2109 1.2891-9.375-3.2812 23.438-9.6094 46.406-18.75 68.32l3.5156-8.4375c-5.8594 13.828-12.773 27.305-20.859 39.961-4.3359 6.7969-9.0234 13.242-13.711 19.688 6.7969-9.375 1.6406-2.1094 0-0.11719-1.1719 1.4062-2.3438 2.8125-3.5156 4.2188-3.0469 3.5156-6.0938 7.0312-9.2578 10.43-6.4453 6.9141-13.359 13.477-20.391 19.805-3.3984 2.9297-6.7969 5.7422-10.195 8.5547-1.1719 0.9375-7.2656 5.7422-2.2266 1.875 4.9219-3.75-1.6406 1.1719-3.0469 2.2266-13.945 10.312-28.477 19.57-43.594 28.125-17.109 9.6094-34.688 18.047-52.734 25.664 2.8125-1.1719 5.625-2.3438 8.4375-3.5156-56.602 23.906-116.13 37.383-174.73 55.195-12.539 3.75-24.609 8.2031-36.562 13.359-17.695 7.6172-33.281 18.047-48.047 30.352-21.797 18.047-39.727 41.953-51.445 67.617-6.5625 14.18-13.242 29.531-15.703 45.117-1.5234 9.6094-1.5234 18.398 3.5156 27.07 4.2188 7.2656 12.656 14.297 20.977 16.172 9.0234 1.9922 19.102 1.6406 27.07-3.5156 7.2656-4.6875 14.766-12.188 16.172-20.977 1.7578-10.898 5.625-21.68 9.9609-31.758-1.1719 2.8125-2.3438 5.625-3.5156 8.4375 3.2812-7.6172 7.0312-15 11.25-22.148 2.5781-4.2188 5.2734-8.3203 8.0859-12.305 0.70312-1.0547 1.5234-2.1094 2.3438-3.1641 3.0469-4.1016-5.2734 6.5625-2.6953 3.5156 1.7578-2.1094 3.3984-4.2188 5.1562-6.2109 3.5156-4.1016 7.3828-7.9688 11.25-11.602 2.1094-1.9922 4.3359-3.9844 6.6797-5.8594 0.9375-0.82031 1.9922-1.5234 2.9297-2.3438 2.8125-2.3438-7.9688 5.8594-2.2266 1.7578 10.547-7.6172 21.797-14.062 33.75-19.219l-8.4375 3.5156c31.523-13.242 65.742-20.273 98.672-29.531 47.344-13.359 93.984-29.297 138.4-50.625 48.398-23.32 95.156-54.844 130.08-95.977 30.82-36.445 53.906-79.102 65.625-125.51 4.4531-17.578 7.2656-35.625 8.5547-53.672 0.46875-5.8594 0.70312-11.836 0.46875-17.695-1.0547-18.281-15.469-36.094-35.156-35.156-18.398 0.58594-36.562 15.234-35.391 34.922z"/>
  <path d="m377.7 972.77v-74.531-177.77-214.92-186.8c0-30.117 0.46875-60.117 0-90.234v-1.2891c0-18.398-16.172-35.977-35.156-35.156-19.102 0.82031-35.156 15.469-35.156 35.156v74.531 177.77 214.92 186.8c0 30.117-0.46875 60.117 0 90.234v1.2891c0 18.398 16.172 35.977 35.156 35.156 19.102-0.82031 35.156-15.469 35.156-35.156z"/>
  <path d="m907.27 339.26c0 3.8672-0.23438 7.6172-0.70312 11.367 0.46875-3.1641 0.82031-6.2109 1.2891-9.375-1.0547 7.3828-2.9297 14.414-5.7422 21.328l3.5156-8.4375c-1.9922 4.8047-4.4531 9.375-7.2656 13.594-0.11719 0.23438-2.3438 3.8672-2.5781 3.75-0.11719 0 5.8594-7.1484 2.6953-3.5156-1.875 2.1094-3.6328 4.2188-5.625 6.2109-1.7578 1.7578-3.75 3.5156-5.625 5.1562-2.2266 1.875-5.625 2.9297 2.9297-2.2266-1.0547 0.70312-2.1094 1.5234-3.1641 2.2266-4.5703 3.0469-9.2578 5.5078-14.297 7.6172l8.4375-3.5156c-6.9141 2.8125-13.945 4.6875-21.328 5.7422 3.1641-0.46875 6.2109-0.82031 9.375-1.2891-7.6172 0.9375-15.117 0.9375-22.734 0 3.1641 0.46875 6.2109 0.82031 9.375 1.2891-7.3828-1.0547-14.414-2.9297-21.328-5.7422l8.4375 3.5156c-4.8047-1.9922-9.375-4.4531-13.594-7.2656-0.23438-0.11719-3.8672-2.3438-3.75-2.5781 0-0.11719 7.1484 5.8594 3.5156 2.6953-2.1094-1.875-4.2188-3.6328-6.2109-5.625-1.7578-1.7578-3.5156-3.75-5.1562-5.625-1.875-2.2266-2.9297-5.625 2.2266 2.9297-0.70313-1.0547-1.5234-2.1094-2.2266-3.1641-3.0469-4.5703-5.5078-9.2578-7.6172-14.297 1.1719 2.8125 2.3438 5.625 3.5156 8.4375-2.8125-6.9141-4.6875-13.945-5.7422-21.328 0.46875 3.1641 0.82031 6.2109 1.2891 9.375-0.9375-7.6172-0.9375-15.117 0-22.734-0.46875 3.1641-0.82031 6.2109-1.2891 9.375 1.0547-7.3828 2.9297-14.414 5.7422-21.328-1.1719 2.8125-2.3438 5.625-3.5156 8.4375 1.9922-4.8047 4.4531-9.375 7.2656-13.594 0.11719-0.23437 2.3438-3.8672 2.5781-3.75 0.11719 0-5.8594 7.1484-2.6953 3.5156 1.875-2.1094 3.6328-4.2188 5.625-6.2109 1.7578-1.7578 3.75-3.5156 5.625-5.1562 2.2266-1.875 5.625-2.9297-2.9297 2.2266 1.0547-0.70312 2.1094-1.5234 3.1641-2.2266 4.5703-3.0469 9.2578-5.5078 14.297-7.6172-2.8125 1.1719-5.625 2.3438-8.4375 3.5156 6.9141-2.8125 13.945-4.6875 21.328-5.7422-3.1641 0.46875-6.2109 0.82031-9.375 1.2891 7.6172-0.9375 15.117-0.9375 22.734 0-3.1641-0.46875-6.2109-0.82031-9.375-1.2891 7.3828 1.0547 14.414 2.9297 21.328 5.7422-2.8125-1.1719-5.625-2.3438-8.4375-3.5156 4.8047 1.9922 9.375 4.4531 13.594 7.2656 0.23438 0.11719 3.8672 2.3438 3.75 2.5781 0 0.11719-7.1484-5.8594-3.5156-2.6953 2.1094 1.875 4.2188 3.6328 6.2109 5.625 1.7578 1.7578 3.5156 3.75 5.1562 5.625 1.875 2.2266 2.9297 5.625-2.2266-2.9297 0.70312 1.0547 1.5234 2.1094 2.2266 3.1641 3.0469 4.5703 5.5078 9.2578 7.6172 14.297l-3.5156-8.4375c2.8125 6.9141 4.6875 13.945 5.7422 21.328-0.46875-3.1641-0.82031-6.2109-1.2891-9.375 0.46875 3.75 0.70312 7.5 0.70312 11.367 0.11719 18.398 16.055 35.977 35.156 35.156 18.867-0.82031 35.391-15.469 35.156-35.156-0.23438-23.789-7.1484-48.398-21.211-67.852-15.352-21.211-35.156-36.328-59.766-45.469-44.18-16.523-99.727-1.7578-129.61 34.805-17.109 20.859-26.836 44.297-29.18 71.25-1.9922 23.438 4.4531 48.633 16.641 68.789 11.836 19.57 29.648 36.68 50.508 46.289 24.961 11.484 50.977 14.648 78.047 9.4922 54.961-10.547 93.984-62.461 94.57-117.19 0.11719-18.398-16.289-35.977-35.156-35.156-19.219 0.70312-34.922 15.234-35.156 35.039z"/>
  <path d="m392.11 142.38c0 3.8672-0.23438 7.6172-0.70312 11.367 0.46875-3.1641 0.82031-6.2109 1.2891-9.375-1.0547 7.3828-2.9297 14.414-5.7422 21.328l3.5156-8.4375c-1.9922 4.8047-4.4531 9.375-7.2656 13.594-0.11719 0.23438-2.3438 3.8672-2.5781 3.75-0.11719 0 5.8594-7.1484 2.6953-3.5156-1.875 2.1094-3.6328 4.2188-5.625 6.2109-1.7578 1.7578-3.75 3.5156-5.625 5.1562-2.2266 1.875-5.625 2.9297 2.9297-2.2266-1.0547 0.70312-2.1094 1.5234-3.1641 2.2266-4.5703 3.0469-9.2578 5.5078-14.297 7.6172l8.4375-3.5156c-6.9141 2.8125-13.945 4.6875-21.328 5.7422 3.1641-0.46875 6.2109-0.82031 9.375-1.2891-7.6172 0.9375-15.117 0.9375-22.734 0 3.1641 0.46875 6.2109 0.82031 9.375 1.2891-7.3828-1.0547-14.414-2.9297-21.328-5.7422l8.4375 3.5156c-4.8047-1.9922-9.375-4.4531-13.594-7.2656-0.23438-0.11719-3.8672-2.3438-3.75-2.5781 0-0.11719 7.1484 5.8594 3.5156 2.6953-2.1094-1.875-4.2188-3.6328-6.2109-5.625-1.7578-1.7578-3.5156-3.75-5.1562-5.625-1.875-2.2266-2.9297-5.625 2.2266 2.9297-0.70313-1.0547-1.5234-2.1094-2.2266-3.1641-3.0469-4.5703-5.5078-9.2578-7.6172-14.297 1.1719 2.8125 2.3438 5.625 3.5156 8.4375-2.8125-6.9141-4.6875-13.945-5.7422-21.328 0.46875 3.1641 0.82031 6.2109 1.2891 9.375-0.9375-7.6172-0.9375-15.117 0-22.734-0.46875 3.1641-0.82031 6.2109-1.2891 9.375 1.0547-7.3828 2.9297-14.414 5.7422-21.328-1.1719 2.8125-2.3438 5.625-3.5156 8.4375 1.9922-4.8047 4.4531-9.375 7.2656-13.594 0.11719-0.23437 2.3438-3.8672 2.5781-3.75 0.11719 0-5.8594 7.1484-2.6953 3.5156 1.875-2.1094 3.6328-4.2188 5.625-6.2109 1.7578-1.7578 3.75-3.5156 5.625-5.1562 2.2266-1.875 5.625-2.9297-2.9297 2.2266 1.0547-0.70312 2.1094-1.5234 3.1641-2.2266 4.5703-3.0469 9.2578-5.5078 14.297-7.6172-2.8125 1.1719-5.625 2.3438-8.4375 3.5156 6.9141-2.8125 13.945-4.6875 21.328-5.7422-3.1641 0.46875-6.2109 0.82031-9.375 1.2891 7.6172-0.9375 15.117-0.9375 22.734 0-3.1641-0.46875-6.2109-0.82031-9.375-1.2891 7.3828 1.0547 14.414 2.9297 21.328 5.7422-2.8125-1.1719-5.625-2.3438-8.4375-3.5156 4.8047 1.9922 9.375 4.4531 13.594 7.2656 0.23438 0.11719 3.8672 2.3438 3.75 2.5781 0 0.11719-7.1484-5.8594-3.5156-2.6953 2.1094 1.875 4.2188 3.6328 6.2109 5.625 1.7578 1.7578 3.5156 3.75 5.1562 5.625 1.875 2.2266 2.9297 5.625-2.2266-2.9297 0.70312 1.0547 1.5234 2.1094 2.2266 3.1641 3.0469 4.5703 5.5078 9.2578 7.6172 14.297l-3.5156-8.4375c2.8125 6.9141 4.6875 13.945 5.7422 21.328-0.46875-3.1641-0.82031-6.2109-1.2891-9.375 0.46875 3.75 0.70312 7.5 0.70312 11.367 0.11719 18.398 16.055 35.977 35.156 35.156 18.867-0.82031 35.391-15.469 35.156-35.156-0.23438-23.789-7.1484-48.398-21.211-67.852-15.352-21.211-35.156-36.328-59.766-45.469-44.18-16.523-99.727-1.7578-129.61 34.805-17.109 20.859-26.836 44.297-29.18 71.25-1.9922 23.438 4.4531 48.633 16.641 68.789 11.836 19.57 29.648 36.68 50.508 46.289 24.961 11.484 50.977 14.648 78.047 9.4922 54.961-10.547 93.984-62.461 94.57-117.19 0.11719-18.398-16.289-35.977-35.156-35.156-19.219 0.70312-34.922 15.352-35.156 35.039z"/>
  <path d="m392.46 1057.6c0 3.8672-0.23438 7.6172-0.70313 11.367 0.46875-3.1641 0.82031-6.2109 1.2891-9.375-1.0547 7.3828-2.9297 14.414-5.7422 21.328 1.1719-2.8125 2.3438-5.625 3.5156-8.4375-1.9922 4.8047-4.4531 9.375-7.2656 13.594-0.11719 0.23438-2.3438 3.8672-2.5781 3.75-0.11719 0 5.8594-7.1484 2.6953-3.5156-1.875 2.1094-3.6328 4.2188-5.625 6.2109-1.7578 1.7578-3.75 3.5156-5.625 5.1562-2.2266 1.875-5.625 2.9297 2.9297-2.2266-1.0547 0.70312-2.1094 1.5234-3.1641 2.2266-4.5703 3.0469-9.2578 5.5078-14.297 7.6172l8.4375-3.5156c-6.9141 2.8125-13.945 4.6875-21.328 5.7422 3.1641-0.46875 6.2109-0.82031 9.375-1.2891-7.6172 0.9375-15.117 0.9375-22.734 0 3.1641 0.46875 6.2109 0.82031 9.375 1.2891-7.3828-1.0547-14.414-2.9297-21.328-5.7422l8.4375 3.5156c-4.8047-1.9922-9.375-4.4531-13.594-7.2656-0.23438-0.11719-3.8672-2.3438-3.75-2.5781 0-0.11719 7.1484 5.8594 3.5156 2.6953-2.1094-1.875-4.2188-3.6328-6.2109-5.625-1.7578-1.7578-3.5156-3.75-5.1562-5.625-1.875-2.2266-2.9297-5.625 2.2266 2.9297-0.70312-1.0547-1.5234-2.1094-2.2266-3.1641-3.0469-4.5703-5.5078-9.2578-7.6172-14.297l3.5156 8.4375c-2.8125-6.9141-4.6875-13.945-5.7422-21.328 0.46875 3.1641 0.82031 6.2109 1.2891 9.375-0.9375-7.6172-0.9375-15.117 0-22.734-0.46875 3.1641-0.82031 6.2109-1.2891 9.375 1.0547-7.3828 2.9297-14.414 5.7422-21.328l-3.5156 8.4375c1.9922-4.8047 4.4531-9.375 7.2656-13.594 0.11719-0.23438 2.3438-3.8672 2.5781-3.75 0.11719 0-5.8594 7.1484-2.6953 3.5156 1.875-2.1094 3.6328-4.2188 5.625-6.2109 1.7578-1.7578 3.75-3.5156 5.625-5.1562 2.2266-1.875 5.625-2.9297-2.9297 2.2266 1.0547-0.70313 2.1094-1.5234 3.1641-2.2266 4.5703-3.0469 9.2578-5.5078 14.297-7.6172-2.8125 1.1719-5.625 2.3438-8.4375 3.5156 6.9141-2.8125 13.945-4.6875 21.328-5.7422-3.1641 0.46875-6.2109 0.82031-9.375 1.2891 7.6172-0.9375 15.117-0.9375 22.734 0-3.1641-0.46875-6.2109-0.82031-9.375-1.2891 7.3828 1.0547 14.414 2.9297 21.328 5.7422-2.8125-1.1719-5.625-2.3438-8.4375-3.5156 4.8047 1.9922 9.375 4.4531 13.594 7.2656 0.23438 0.11719 3.8672 2.3438 3.75 2.5781 0 0.11719-7.1484-5.8594-3.5156-2.6953 2.1094 1.875 4.2188 3.6328 6.2109 5.625 1.7578 1.7578 3.5156 3.75 5.1562 5.625 1.875 2.2266 2.9297 5.625-2.2266-2.9297 0.70313 1.0547 1.5234 2.1094 2.2266 3.1641 3.0469 4.5703 5.5078 9.2578 7.6172 14.297-1.1719-2.8125-2.3438-5.625-3.5156-8.4375 2.8125 6.9141 4.6875 13.945 5.7422 21.328-0.46875-3.1641-0.82031-6.2109-1.2891-9.375 0.46875 3.75 0.70313 7.6172 0.70313 11.367 0.11719 18.398 16.055 35.977 35.156 35.156 18.867-0.82031 35.391-15.469 35.156-35.156-0.23438-23.789-7.1484-48.398-21.211-67.852-15.352-21.211-35.156-36.328-59.766-45.469-44.18-16.523-99.727-1.7578-129.61 34.805-17.109 20.859-26.836 44.297-29.18 71.25-1.9922 23.438 4.4531 48.633 16.641 68.789 11.836 19.57 29.648 36.68 50.508 46.289 24.961 11.484 50.977 14.648 78.047 9.4922 54.961-10.547 93.984-62.461 94.57-117.19 0.11719-18.398-16.289-35.977-35.156-35.156-19.102 0.70312-34.922 15.352-35.156 35.039z"/>
 </g>
</svg>
