<?xml version="1.0" encoding="UTF-8"?>
<svg width="1200pt" height="1200pt" version="1.1" viewBox="0 0 1200 1200" xmlns="http://www.w3.org/2000/svg">
 <path d="m407.21 263.06 90.09 93.695c25.227 21.621 25.227 64.863 0 86.488l-72.07 72.07c50.449 108.11 154.95 212.61 259.46 259.46l72.07-72.07c25.227-25.227 64.863-25.227 90.09 0l90.09 90.09c25.227 25.227 25.227 64.863 0 90.09l-90.09 90.09c-158.56 158.56-774.77-461.26-619.82-616.21l90.09-93.695c25.227-21.621 64.863-21.621 90.09 0zm245.05-14.414c-28.828-7.207-18.02-54.055 14.414-46.848 162.16 43.242 288.29 172.97 331.53 335.14 7.207 28.828-39.641 39.641-46.848 10.812-39.641-144.14-151.35-259.46-299.1-299.1zm-28.828 111.71c-28.828-7.207-18.02-54.055 10.812-46.848 122.52 32.434 219.82 129.73 252.25 252.25 7.207 28.828-36.035 43.242-46.848 10.812-28.828-104.5-111.71-187.39-216.21-216.21z" fill="#126eb2" fill-rule="evenodd"/>
</svg>
